<?xml version="1.0" encoding="UTF-8"?>
<svg width="1684px" height="1455px" viewBox="0 0 1684 1455" version="1.1" xmlns="http://www.w3.org/2000/svg" xmlns:xlink="http://www.w3.org/1999/xlink">
    <!-- Generator: Sketch 58 (84663) - https://sketch.com -->
    <title>Floating</title>
    <desc>Created with Sketch.</desc>
    <defs>
        <linearGradient x1="8.37018045%" y1="50%" x2="98.645523%" y2="50%" id="linearGradient-1">
            <stop stop-color="#68C8C4" stop-opacity="0.0343111478" offset="0%"></stop>
            <stop stop-color="#379792" stop-opacity="0.369881583" offset="100%"></stop>
        </linearGradient>
        <path d="M176.524794,748.358872 C177.869308,670.184499 140.145641,574.181034 63.3537926,460.348476 C-13.4380556,346.515918 -20.4197033,193.066426 42.4088494,0 C45.0571233,186.617188 81.4640674,325.077754 151.629682,415.3817 C221.795296,505.685645 230.093667,616.678036 176.524794,748.358872 Z" id="path-2"></path>
        <path d="M176.263759,1084 C177.606284,970.764194 139.938401,831.702896 63.2601084,666.816105 C-13.4181841,501.929314 -20.3895077,279.657279 42.3461375,0 C44.9904953,270.315539 81.3436027,470.876071 151.40546,601.681599 C221.467317,732.487126 229.753416,893.259927 176.263759,1084 Z" id="path-4"></path>
        <path d="M176.263759,474 C177.606284,424.48545 139.938401,363.678203 63.2601084,291.57826 C-13.4181841,219.478316 -20.3895077,122.285563 42.3461375,0 C44.9904953,118.200706 81.3436027,205.899684 151.40546,263.096935 C221.467317,320.294186 229.753416,390.595208 176.263759,474 Z" id="path-6"></path>
        <path d="M735.645958,187.654284 C584.089363,57.6933058 481.581546,-4.53940003 428.122507,0.956166711 C374.663468,6.45173345 232.058972,41.4723196 0.309018286,106.017925 L14.8798374,163.406343 C249.47372,117.227452 387.221276,94.1380062 428.122507,94.1380062 C469.023737,94.1380062 571.531554,190.312195 735.645958,382.660572 L735.645958,187.654284 Z" id="path-8"></path>
        <path d="M0.309018286,0.956166711 C210.376174,54.7406156 333.420607,96.4866472 369.442317,126.194262 C423.474881,170.755683 570.598383,301.070358 612.343969,332.834749 C654.089555,364.59914 712.968285,434.147351 794.809155,418.823196 C849.369735,408.607093 830.68388,352.550122 738.751589,250.652284 C678.939051,197.656383 589.15651,137.6367 469.403966,70.5932364 C349.651422,3.54977262 202.992499,-36.6479729 29.4271969,-50 L0.309018286,0.956166711 Z" id="path-10"></path>
        <path d="M95.2250078,431.639736 C109.702336,387.761034 93.3373194,334.145539 46.1299574,270.79325 C-1.07740464,207.440961 -12.0523189,165.212749 13.2052147,144.108615 C112.324478,160.820041 192.162434,148.936136 252.719082,108.456901 C343.554054,47.7380477 356.783004,-22.8411363 434.373969,12.4484557 C511.964934,47.7380477 551.544453,72.8051857 608.218185,108.456901 C664.891917,144.108615 613.608822,247.323087 413.458334,320.84258 C280.024675,369.855574 173.9469,406.78796 95.2250078,431.639736 Z" id="path-12"></path>
        <linearGradient x1="37.0652497%" y1="2.10201141%" x2="62.6963717%" y2="99.0979034%" id="linearGradient-14">
            <stop stop-color="#D5D5D5" offset="0%"></stop>
            <stop stop-color="#9D9D9D" offset="100%"></stop>
        </linearGradient>
        <linearGradient x1="37.0652497%" y1="2.10201141%" x2="62.9347503%" y2="100%" id="linearGradient-15">
            <stop stop-color="#E5E5E5" offset="0%"></stop>
            <stop stop-color="#C7C7C7" offset="100%"></stop>
        </linearGradient>
        <path d="M0.09455652,2.60983862 C2.49555727,8.45117427 15.4400458,13.9111019 38.9280221,18.9896215 C29.6931475,30.0729124 27.3844289,40.1711095 32.0018662,49.2842128 C38.9280221,62.9538678 82.894059,57.4942453 96.6518432,72.7312074 C110.409627,87.9681695 259.149322,195.50887 297.331049,220.224837 C322.785534,236.702148 350.008518,242.333943 379,237.120221 L379,163.232608 C231.959837,106.632897 148.164285,66.4658888 127.613346,42.7315845 C96.786938,7.13012794 -3.5069446,-6.15216485 0.09455652,2.60983862 Z" id="path-16"></path>
        <path d="M0.318141682,177.653566 C0.318141682,177.653566 37.9389452,136.964016 113.180552,55.5849155 L143.135175,0 C176.18473,20.1404145 185.516166,44.2627109 171.129481,72.366889 C149.549454,114.523156 71.8717719,253.420958 0.318141682,253.420958 C0.318141682,202.909363 0.318141682,177.653566 0.318141682,177.653566 Z" id="path-18"></path>
        <path d="M5.83476606,46.0469165 C44.4268547,35.4074514 63.722899,23.401559 63.722899,10.0292396 C63.722899,-3.34307986 90.7978479,-3.34307986 144.947746,10.0292396 C121.790367,68.6848698 118.250898,102.681737 134.329337,112.01984 C158.446996,126.026995 65.0907918,137.591727 27.2649361,112.01984 C2.04769886,94.9719152 -5.09569114,72.9809407 5.83476606,46.0469165 Z" id="path-20"></path>
        <path d="M19.8730344,161.91135 C49.10323,167.678164 116.54522,185.926696 138.757275,142.67131 C182.223713,58.0254901 149.604325,0.16280439 106.137887,0.16280439 C62.6714484,0.16280439 36.2210256,-4.15267938 19.8730344,31.6529889 C3.52504322,67.4586571 -13.025025,155.420904 19.8730344,161.91135 Z" id="path-22"></path>
        <path d="M16.6464819,72.6765151 C-0.48504616,53.3287272 -3.79269509,38.1377298 6.72353511,27.103523 C22.4978987,10.5522129 43.7584083,-0.77668594 82.6867581,4.88776348 C121.615108,10.5522129 160.250105,-8.53060171 178.421356,4.88776348 C196.592607,18.3061287 207.225902,78.4708886 193.512334,109.303999 C179.798767,140.137108 169.432329,151.724309 155.329401,153.420036 C141.226474,155.115763 154.959511,118.363873 138.619624,113.089551 C122.279738,107.815228 101.587616,135.084566 95.5725983,131.863354 C82.2493079,124.728356 90.2216934,81.9380216 81.0330875,78.7681347 C62.1277225,72.2461584 40.6655206,70.2156185 16.6464819,72.6765151 Z" id="path-24"></path>
        <path d="M11.5455294,52.8232076 C27.7125375,52.8232076 26.6952579,48.6546692 43.3334188,48.6546692 C59.9715796,48.6546692 72.4712409,60.5804369 88.2476941,60.5804369 C104.024147,60.5804369 109.424016,55.4890702 109.424016,29.3317399 C109.424016,3.17440947 70.8294658,3.17070068 48.8516663,1.02866757 C26.8738668,-1.11336555 5.40805348,0.295361502 2.92085586,13.9370019 C0.43365825,27.5786422 -4.62147878,52.8232076 11.5455294,52.8232076 Z" id="path-26"></path>
        <path d="M10.7690455,197.999494 C16.1806923,197.999494 103.359343,199.113982 112.794977,162.944203 C119.085399,138.831017 131.212235,84.5162825 149.175486,0 L171,0 L132.309959,162.944203 C123.98411,192.013368 108.859546,208.080345 86.9362667,211.145132 C65.0129877,214.209919 39.6239139,217.045081 10.7690455,219.650617 C3.58968184,221.056141 0,218.22098 0,211.145132 C0,200.53136 5.35739874,197.999494 10.7690455,197.999494 Z" id="path-28"></path>
        <polygon id="path-30" points="93.0620334 26.6034513 32.4522888 0 0.907448743 16.5201891 34.7965951 77.2251796 63.9438547 77.2251796"></polygon>
        <path d="M17.8699432,79.7218169 C36.6824213,95.0700695 76.5506607,124.410225 82.8152891,147.875573 C89.0799175,171.340922 139.397485,160.380192 145.967514,159.377931 C152.537544,158.375669 152.329813,146.04861 139.120855,139.286128 C130.314883,134.777807 117.841311,117.075086 101.700139,86.1779653 C122.647926,80.1335085 130.562871,73.6454262 125.444973,66.7137183 C117.768127,56.3161566 99.9855395,62.2200973 74.9334097,44.8138776 C49.8812799,27.407658 9.72607646,-2.89262693 3.29814381,0.712368334 C-3.12978885,4.3173636 -0.942534965,64.3735643 17.8699432,79.7218169 Z" id="path-32"></path>
        <path d="M43.4920917,0.893462141 C21.31346,-1.92222111 7.52296616,1.9171668 2.12061034,12.4116259 C-5.98292339,28.1533144 11.7501096,62.5545121 11.7501096,62.5545121 C11.7501096,62.5545121 13.0413855,65.6943038 13.8374717,65.6208601 C16.6119167,65.364901 31.3537297,62.9185742 58.0629109,58.2818796 L43.4920917,0.893462141 Z" id="path-34"></path>
        <path d="M15.3612032,64.9806875 C30.645105,77.4569594 63.0354284,101.306955 68.1250272,120.381443 C73.2146259,139.455932 114.094341,130.546185 119.432059,129.731468 C124.769776,128.91675 124.601008,118.896343 113.869598,113.399264 C106.715325,109.734544 96.5813674,95.3443745 83.4677261,70.2287548 C100.486426,65.3153429 106.916799,60.0413172 102.758843,54.4066776 C96.5219098,45.9547182 82.0747268,50.7539075 61.7215184,36.6047575 C41.3683099,22.4556074 8.74484692,-2.17485721 3.52257422,0.755567651 C-1.69969848,3.68599252 0.0773015042,52.5044156 15.3612032,64.9806875 Z" id="path-36"></path>
        <linearGradient x1="5.41838274%" y1="59.9168922%" x2="78.55458%" y2="41.1261077%" id="linearGradient-38">
            <stop stop-color="#75F3F5" stop-opacity="0.304522748" offset="0%"></stop>
            <stop stop-color="#80ED99" stop-opacity="0" offset="100%"></stop>
        </linearGradient>
        <linearGradient x1="0%" y1="46.025697%" x2="104.794441%" y2="62.3735804%" id="linearGradient-39">
            <stop stop-color="#72D5D2" stop-opacity="0.591387982" offset="0%"></stop>
            <stop stop-color="#3EAAA6" stop-opacity="0" offset="100%"></stop>
        </linearGradient>
        <linearGradient x1="0%" y1="46.0559267%" x2="104.794441%" y2="62.2794633%" id="linearGradient-40">
            <stop stop-color="#72D5D2" stop-opacity="0.591387982" offset="0%"></stop>
            <stop stop-color="#3EAAA6" stop-opacity="0" offset="100%"></stop>
        </linearGradient>
        <linearGradient x1="0%" y1="46.029873%" x2="104.794441%" y2="62.3605791%" id="linearGradient-41">
            <stop stop-color="#72D5D2" stop-opacity="0.591387982" offset="0%"></stop>
            <stop stop-color="#3EAAA6" stop-opacity="0" offset="100%"></stop>
        </linearGradient>
        <linearGradient x1="8.37018045%" y1="50%" x2="98.645523%" y2="50%" id="linearGradient-42">
            <stop stop-color="#68C8C4" stop-opacity="0.0343111478" offset="0%"></stop>
            <stop stop-color="#379792" stop-opacity="0.369881583" offset="100%"></stop>
        </linearGradient>
    </defs>
    <g id="Page-1" stroke="none" stroke-width="1" fill="none" fill-rule="evenodd">
        <g id="Floating" transform="translate(0.000000, -21.000000)">
            <path d="M1552,1223.7467 C1552,1249.32067 1505.83083,1234.00017 1488.48348,1227.34111 C1484.86404,1229.70695 1481.48607,1231.1526 1478.35164,1231.68001 C1474.22441,1232.37448 1467.77387,1231.93888 1459,1230.37322 C1473.8286,1230.37322 1481.2429,1228.52232 1481.2429,1224.82052 C1481.2429,1221.11872 1473.8286,1217.84524 1459,1215.00009 L1459,1215.00009 L1478.95403,1215.00009 C1483.80667,1215.00009 1487.55293,1217.07659 1490.19281,1221.22959 C1508.66639,1213.78691 1552,1198.9705 1552,1223.7467 Z" id="Combined-Shape" fill="url(#linearGradient-1)"></path>
            <ellipse id="Oval" fill-opacity="0.0741598489" fill="#000000" cx="523" cy="1280.5" rx="198" ry="17.5"></ellipse>
            <ellipse id="Oval" fill-opacity="0.0741598489" fill="#000000" cx="720" cy="1444.72215" rx="139" ry="23.5"></ellipse>
            <ellipse id="Oval" fill-opacity="0.0741598489" fill="#000000" cx="1244" cy="1451.72215" rx="139" ry="23.5"></ellipse>
            <g id="Plant" transform="translate(325.000000, 196.000000)">
                <g id="Group-13" transform="translate(0.000000, 335.000000)">
                    <mask id="mask-3" fill="white">
                        <use xlink:href="#path-2"></use>
                    </mask>
                    <use id="Path-38" fill="#57CC99" xlink:href="#path-2"></use>
                    <path d="M42.4088494,5.68434189e-14 C3.28469068,162.360191 24.3671538,312.223691 105.656239,449.590502 C186.945324,586.957312 206.393244,675.872399 164,716.335763" id="Path-39" stroke="#38A3A5" stroke-width="10" mask="url(#mask-3)"></path>
                </g>
                <g id="Group-13" transform="translate(249.500000, 542.000000) scale(-1, 1) translate(-249.500000, -542.000000) translate(144.000000, 0.000000)">
                    <mask id="mask-5" fill="white">
                        <use xlink:href="#path-4"></use>
                    </mask>
                    <use id="Path-38" fill="#57CC99" xlink:href="#path-4"></use>
                    <path d="M42.0389335,0 C2.97458358,235.179208 24.0248181,452.256924 105.189637,651.233148 C186.354456,850.209372 209.941196,994.464989 175.949856,1084" id="Path-39" stroke="#38A3A5" stroke-width="10" mask="url(#mask-5)"></path>
                </g>
                <g id="Group-13" transform="translate(249.500000, 847.000000) scale(-1, 1) translate(-249.500000, -847.000000) translate(144.000000, 610.000000)">
                    <mask id="mask-7" fill="white">
                        <use xlink:href="#path-6"></use>
                    </mask>
                    <use id="Path-38" fill="#57CC99" xlink:href="#path-6"></use>
                    <path d="M42.0389335,0 C2.97458358,102.836665 24.0248181,197.758102 105.189637,284.76431 C186.354456,371.770519 209.941196,434.849082 175.949856,474" id="Path-39" stroke="#38A3A5" stroke-width="10" mask="url(#mask-7)"></path>
                </g>
            </g>
            <g id="Person">
                <path d="M954.646766,1142.27442 C932.709492,1152.78682 918.413302,1116.37634 901.827492,1089.53727 C890.770285,1071.64456 929.889161,1062.29053 1019.18412,1061.47517 C990.784066,1108.33307 969.271615,1135.26615 954.646766,1142.27442 Z" id="Path-6" fill="#281508"></path>
                <g id="Group" transform="translate(157.910445, 683.997976)">
                    <mask id="mask-9" fill="white">
                        <use xlink:href="#path-8"></use>
                    </mask>
                    <use id="Path-3" fill="#173C55" xlink:href="#path-8"></use>
                    <path d="M0.309018286,140.804314 C98.2245525,105.477477 168.049463,85.508039 209.78375,80.8960012 C272.385181,73.9779445 382.539664,27.8304719 446.044662,41.6538321 C488.381328,50.8694056 584.915093,109.643004 735.645958,217.974629 L735.645958,302.405483 L13.1009049,174.561118 L0.309018286,140.804314 Z" id="Path-5" fill="#143448" mask="url(#mask-9)"></path>
                    <mask id="mask-11" fill="white">
                        <use xlink:href="#path-10"></use>
                    </mask>
                    <use id="Path-2" fill="#1B445F" xlink:href="#path-10"></use>
                    <path d="M9.86858418,-19.5278967 C135.755725,14.3279184 250.082235,44.8545309 352.848115,72.0519408 C506.996934,112.848056 658.781982,249.908612 680.287243,299.014332 C701.792504,348.120051 780.117701,380.553321 825.290402,374.141175 C870.463103,367.729028 1002.7116,536.4364 754.669366,446.947594 C589.307879,387.288389 334.751423,243.623213 -9,15.9520648 L9.86858418,-19.5278967 Z" id="Path-4" fill="#15364B" mask="url(#mask-11)"></path>
                </g>
                <g id="Group-3" transform="translate(859.421758, 710.634684)">
                    <path d="M441.863693,16.4394483 C404.591732,-2.47400994 374.952827,-4.80167616 352.946978,9.45644969 C319.938204,30.8436385 219.739915,86.0874754 177.872689,86.0874754 L189.098065,153.982383 C246.985551,159.513226 290.338826,146.538953 319.157889,115.059566 C347.976952,83.5801783 388.878887,50.7068058 441.863693,16.4394483 Z" id="Path-24" fill="#7B4622"></path>
                    <path d="M177.872689,86.0874754 C116.907596,83.257285 79.9505819,79.8419057 67.001646,75.8413372 C54.0527101,71.8407688 54.0527101,85.5484032 67.001646,116.96424 L188.614018,144.108615 L177.872689,86.0874754 Z" id="Path-27" fill="#EADDC9"></path>
                    <mask id="mask-13" fill="white">
                        <use xlink:href="#path-12"></use>
                    </mask>
                    <use id="Path-26" fill="#854D27" xlink:href="#path-12"></use>
                    <path d="M6.89108928,216 C14.1542764,232.859129 25.2477243,244.152694 40.171433,249.880693 C62.556996,258.472692 226.19596,207.371045 209.764624,182.318014 C198.8104,165.615994 184.461803,161.703771 166.718834,170.581346" id="Path-36" fill="#703F1E" mask="url(#mask-13)"></path>
                    <ellipse id="Oval" fill="#703F1E" mask="url(#mask-13)" cx="514.578242" cy="50.3404846" rx="94" ry="61.5"></ellipse>
                    <path d="M100.170302,392.167658 C141.93557,395.926529 200.904884,375.060503 277.078242,329.569581 C391.33828,261.333197 431.619956,352.875923 455.013405,275.768775 C470.609039,224.36401 499.28136,181.202401 541.030368,146.283948 C529.111128,166.05764 514.204176,193.043118 496.309513,227.240381 C481.204818,256.105927 481.204818,292.42622 466.578242,301.033368 C443.077552,314.862574 316.744219,362.025754 87.5782422,442.522908 L100.170302,392.167658 Z" id="Path-10" fill="#703F1E" mask="url(#mask-13)"></path>
                </g>
                <g id="Laptop" transform="translate(730.000000, 604.475168)">
                    <path d="M17.0444015,202.455551 L165.383252,162.9569 C168.042299,162.248867 170.879146,162.796177 173.083952,164.442589 L325.747175,278.441968 C329.729854,281.415984 330.547536,287.055499 327.57352,291.038177 C326.514394,292.456515 325.060528,293.531034 323.393823,294.127295 L177.832517,346.201646 C174.866218,347.262835 171.560972,346.695743 169.11805,344.706477 L13.677282,218.131398 C9.82295229,214.992826 9.24271626,209.323958 12.3812886,205.469629 C13.5791526,203.99859 15.211217,202.943679 17.0444015,202.455551 Z" id="Rectangle" fill="#ACABAB"></path>
                    <path d="M31.879541,210.11637 L175.965767,327.445471 L307.595351,280.355173 L162.334802,173.423555 L31.879541,210.11637 Z" id="Rectangle" stroke="#D5D5D5" stroke-width="30" fill="#C2C2C2"></path>
                    <g id="Screen" transform="translate(-0.000000, 0.000000)">
                        <path d="M12.5504386,5.42165359 L181.550439,145.299226 C182.468556,146.059132 183,147.188861 183,148.380665 L183,339.496908 C183,341.706047 181.209139,343.496908 179,343.496908 C178.068853,343.496908 177.166879,343.172055 176.449561,342.578346 L7.44956137,202.700774 C6.53144381,201.940868 6,200.811139 6,199.619335 L6,8.50309202 C6,6.29395302 7.790861,4.50309202 10,4.50309202 C10.9311468,4.50309202 11.8331208,4.82794541 12.5504386,5.42165359 Z" id="Rectangle" fill="url(#linearGradient-14)"></path>
                        <path d="M6.55043863,7.42165359 L175.550439,147.299226 C176.468556,148.059132 177,149.188861 177,150.380665 L177,341.496908 C177,343.706047 175.209139,345.496908 173,345.496908 C172.068853,345.496908 171.166879,345.172055 170.449561,344.578346 L1.44956137,204.700774 C0.531443807,203.940868 -5.6577867e-15,202.811139 0,201.619335 L0,10.503092 C-6.04370123e-15,8.29395302 1.790861,6.50309202 4,6.50309202 C4.93114679,6.50309202 5.83312076,6.82794541 6.55043863,7.42165359 Z" id="Rectangle" fill="url(#linearGradient-15)"></path>
                        <ellipse id="Oval" fill="#6E6C6C" transform="translate(81.000000, 173.500000) rotate(-9.000000) translate(-81.000000, -173.500000) " cx="81" cy="173.5" rx="11" ry="18.5"></ellipse>
                    </g>
                </g>
                <g id="Group-2" transform="translate(947.000000, 834.475168)">
                    <mask id="mask-17" fill="white">
                        <use xlink:href="#path-16"></use>
                    </mask>
                    <use id="Path-7" fill="#EEE0CB" xlink:href="#path-16"></use>
                    <path d="M31.0445687,35.0221975 C50.7633396,45.4189773 71.3655623,52.3742976 92.8512368,55.8881583 C125.079749,61.1589494 192.415883,144.647618 266.485798,175.353988 C315.86574,195.824901 353.370475,207.869317 379,211.487235 L379,250.554961 C207.029505,206.643477 115.60728,168.917995 104.733325,137.378517 C88.4223926,90.0693001 25.2461201,58.4168904 25.2461201,49.719849 C25.2461201,43.9218214 27.1789363,39.0226042 31.0445687,35.0221975 Z" id="Path-8" fill="#D8CBB8" mask="url(#mask-17)"></path>
                </g>
                <g id="Group-4" transform="translate(1325.681858, 820.054211)">
                    <mask id="mask-19" fill="white">
                        <use xlink:href="#path-18"></use>
                    </mask>
                    <use id="Path-9" fill="#854D27" xlink:href="#path-18"></use>
                    <path d="M0.318141682,225.908193 C69.033534,195.983682 118.089628,159.894359 147.486424,117.640222 C176.88322,75.3860847 172.247472,99.2313684 133.579179,189.176073 C47.8293429,239.709303 3.40899726,264.975919 0.318141682,264.975919 C-2.77271389,264.975919 -2.77271389,251.953343 0.318141682,225.908193 Z" id="Path-11" fill="#703F1E" mask="url(#mask-19)"></path>
                </g>
                <g id="Group-5" transform="translate(1295.450685, 681.027216)">
                    <mask id="mask-21" fill="white">
                        <use xlink:href="#path-20"></use>
                    </mask>
                    <use id="Path-13" fill="#EEE0CB" xlink:href="#path-20"></use>
                    <path d="M12.2826365,108.73588 C83.5816612,46.672034 105.403504,13.7479028 77.7481644,9.96348675 C50.092825,6.17907071 18.8434369,20.1729298 -16,51.9450641 L12.2826365,108.73588 Z" id="Path-25" fill="#E8D8C2" mask="url(#mask-21)"></path>
                </g>
                <g id="Group-6" transform="translate(1329.625823, 528.475168)">
                    <mask id="mask-23" fill="white">
                        <use xlink:href="#path-22"></use>
                    </mask>
                    <use id="Path-12" fill="#EEE0CB" xlink:href="#path-22"></use>
                    <path d="M59.4338829,29.0718285 C50.0755935,44.8751813 43.6230082,57.0322627 40.0761271,65.5430727 C34.7558055,78.3092878 15.2945647,86.728159 15.2945647,99.4312312 C15.2945647,112.134303 29.4913693,109.399957 27.3911364,118.801686 C25.2909035,128.203416 28.6812154,160.880673 44.0575491,170.676544 C54.3084383,177.207125 37.6412671,171.165626 -5.9439645,152.552047 L-10.3653205,29.0718285 C20.2655924,20.2951548 38.406549,18.1211833 44.0575491,22.549914 C49.7085493,26.9786447 54.8339939,29.1526162 59.4338829,29.0718285 Z" id="Path-16" fill="#E8D8C2" mask="url(#mask-23)"></path>
                </g>
                <g id="Group-7" transform="translate(1325.260502, 487.451642)">
                    <mask id="mask-25" fill="white">
                        <use xlink:href="#path-24"></use>
                    </mask>
                    <use id="Path-15" fill="#A65E3A" xlink:href="#path-24"></use>
                    <path d="M43.102548,76.7384509 C27.9697548,63.7264875 23.3412787,53.0864206 29.2171196,44.8182501 C44.8336969,22.8434342 22.0704529,18.056893 24.5,12.4394001 C28.0866662,4.14646671 17.9199996,10.0768304 -6,30.2304911 L10.953386,80.8235138 L43.102548,76.7384509 Z" id="Path-17" fill="#AC6745" mask="url(#mask-25)"></path>
                    <path d="M72.7155005,76.7384509 C63.377074,66.6789734 60.9051376,56.0389065 65.2996912,44.8182501 C69.6942448,33.5975937 66.2610144,19.9693921 55,3.93364504 C80.7980188,-1.31121501 95.7980188,-2.62243003 100,2.88657986e-15 C106.302972,3.93364504 120.280381,31.590013 111.445424,55.4165451 C105.555453,71.3008998 108.539766,91.5929543 120.398361,116.292709 C113.851883,133.098853 107.052429,141.501925 100,141.501925 C92.9475707,141.501925 83.8527375,119.9141 72.7155005,76.7384509 Z" id="Path-18" fill="#AC6745" mask="url(#mask-25)"></path>
                    <path d="M144.182769,149.243567 C147.473595,149.243567 127.709393,88.5850967 143.671569,62.8701721 C154.313019,45.726889 154.483419,24.770165 144.182769,0 C168.362203,0 182.754151,0 187.358613,0 C194.265306,0 192.548113,32.2079678 178.095729,62.8701721 C168.460805,83.3116416 168.569348,113.688251 178.421356,154 C161.925121,158.283011 152.580062,159.26658 150.386178,156.950709 C147.095351,153.476902 140.891943,149.243567 144.182769,149.243567 Z" id="Path-19" fill="#AC6745" mask="url(#mask-25)"></path>
                </g>
                <g id="Goggles" transform="translate(1320.575984, 563.894731)">
                    <mask id="mask-27" fill="white">
                        <use xlink:href="#path-26"></use>
                    </mask>
                    <path stroke="#1B445F" fill="#38A3A5" stroke-width="10" d="M11.5455294,57.8232076 C4.12222031,57.8232076 -0.980965719,53.7988659 -3.28703066,47.0298799 C-4.94032802,42.1769608 -5.179609,36.1044461 -4.42453301,28.6228025 C-4.09200422,25.3279528 -3.59064333,21.9516528 -2.86881269,17.8476114 C-2.73275459,17.0740392 -2.59157992,16.2888437 -2.41951558,15.3448034 C-2.34121981,14.9152294 -2.05925958,13.3758567 -1.99805525,13.0401666 C-0.396619482,4.25670257 6.68283698,-1.02087717 17.5383194,-3.32690674 C25.8829087,-5.09954742 36.5798997,-5.19107337 49.3366856,-3.94775246 C50.7919222,-3.80592002 52.3665383,-3.66849669 54.5041318,-3.49337927 C55.28322,-3.42955427 58.1310422,-3.19985358 58.6970889,-3.1537199 C60.4010096,-3.01484773 61.7684556,-2.89954247 63.1071928,-2.78034396 C66.5313089,-2.47546742 69.4941143,-2.16719571 72.3340917,-1.80743498 C84.0826544,-0.319158487 93.0733749,1.99507088 100.080091,5.91888025 C109.276981,11.0692025 114.424016,18.866224 114.424016,29.3317399 C114.424016,56.8266781 108.022223,65.5804369 88.2476941,65.5804369 C81.4556892,65.5804369 75.7387875,63.9827235 66.7138545,60.2776533 C66.0356324,59.999218 65.805179,59.9036787 64.1954821,59.2349605 C54.1542471,55.0635192 49.4186527,53.6546692 43.3334188,53.6546692 C36.8769431,53.6546692 33.9028074,54.1201488 28.5703616,55.5649368 C28.4925168,55.5860298 28.4925168,55.5860298 28.414366,55.607206 C22.3891058,57.2397467 18.6939933,57.8232076 11.5455294,57.8232076 Z"></path>
                    <path d="M37.3001975,51.4251989 C29.4797442,44.0227677 28.6383109,36.0682249 34.7758976,27.5615705 C40.9134843,19.0549161 42.8013757,9.46003708 40.4395718,-1.22306649 C9.07380825,-3.655312 -7.24715539,-1.39828689 -8.52331915,5.54800885 C-10.4375648,15.9674525 -24.4468325,60.83076 -6.67912968,60.83076 C5.16600555,60.83076 19.8257813,57.695573 37.3001975,51.4251989 Z" id="Path-22" fill="#2F8C8E" mask="url(#mask-27)"></path>
                </g>
                <path d="M1430,579.78384 C1493.0472,577.675877 1524.5708,574.842469 1524.5708,571.283617 C1523.55957,588.169644 1521.18895,597.570768 1517.45893,599.486989 C1513.72891,601.403211 1485.44247,603.532406 1432.59963,605.874577 L1430,579.78384 Z" id="Path-21" fill="#1B445F"></path>
                <g id="Group-9" transform="translate(1351.000000, 450.475168)">
                    <mask id="mask-29" fill="white">
                        <use xlink:href="#path-28"></use>
                    </mask>
                    <use id="Path-23" fill="#325F7D" xlink:href="#path-28"></use>
                    <path d="M19.780088,211.14057 C50.9351234,211.978118 112.870828,209.46735 122.095614,171.416844 C128.245472,146.04984 141.585633,88.9108919 162.116096,0 L179,0 L141.174519,171.416844 C133.034718,201.997524 118.248124,218.899938 96.8147381,222.124086 C64.6646593,226.960307 24.7825161,234.714199 9.01217046,231.045514 C-6.75817522,227.376829 -14.0967717,211.14057 -9.77925537,211.14057 C-5.46173905,211.14057 -11.3749474,210.303021 19.780088,211.14057 Z" id="Path-23" fill="#234F6D" mask="url(#mask-29)"></path>
                </g>
                <g id="Group-11" transform="translate(94.275608, 607.394525)">
                    <mask id="mask-31" fill="white">
                        <use xlink:href="#path-30"></use>
                    </mask>
                    <use id="Path-32" fill="#EEE0CB" xlink:href="#path-30"></use>
                    <path d="M89.8095264,64.1963414 C74.8159937,56.6857461 62.224833,52.0749363 52.0360443,50.363912 C41.8472556,48.6528876 26.0767048,48.6528876 4.7243918,50.363912 L22.6318405,94.0064955 L72.6682465,94.0064955 L89.8095264,64.1963414 Z" id="Path-33" fill="#D8CBB8" mask="url(#mask-31)"></path>
                </g>
                <g id="Group-10" transform="translate(0.000000, 536.475168)">
                    <mask id="mask-33" fill="white">
                        <use xlink:href="#path-32"></use>
                    </mask>
                    <use id="Path-28" fill="#2F8C8E" xlink:href="#path-32"></use>
                    <path d="M138.924589,159.003569 C113.591991,151.269219 99.2144266,140.933 95.7918947,127.994911 C90.6580967,108.587778 26.1963939,87.7785328 13.7541053,55.5140245 C5.45924614,34.0043523 1.71437268,15.6388246 2.51948487,0.417441387 C-7.73465101,21.0006488 -11.1216148,37.2135711 -7.64140656,49.0562082 C-4.16119829,60.8988452 18.7959129,91.8296739 61.229927,141.848694 L116.035795,180.417441 L138.924589,159.003569 Z" id="Path-29" fill="#1B445F" mask="url(#mask-33)"></path>
                    <path d="M40.2163875,17.6152793 C41.6897149,37.5303589 39.4629925,48.5034776 33.5362202,50.5346356" id="Path-31" stroke="#FFFFFF" stroke-width="5" mask="url(#mask-33)"></path>
                    <path d="M56.6801673,27 C58.1534947,46.9150796 55.9267723,57.8881983 50,59.9193563" id="Path-31" stroke="#FFFFFF" stroke-width="5" mask="url(#mask-33)"></path>
                    <path d="M74.6801673,38 C76.1534947,57.9150796 73.9267723,68.8881983 68,70.9193563" id="Path-31" stroke="#FFFFFF" stroke-width="5" mask="url(#mask-33)"></path>
                </g>
                <g id="Group-12" transform="translate(114.727371, 789.122439)">
                    <mask id="mask-35" fill="white">
                        <use xlink:href="#path-34"></use>
                    </mask>
                    <use id="Path-34" fill="#EEE0CB" xlink:href="#path-34"></use>
                    <path d="M54.1176878,32.8110644 C32.8697997,36.3302168 17.6526306,39.0844824 8.46618039,41.0738613 C-0.720269798,43.0632401 1.66931787,52.5367973 15.6349434,69.4945326 L58.0629109,58.2818796 L54.1176878,32.8110644 Z" id="Path-35" fill="#D8CBB8" mask="url(#mask-35)"></path>
                </g>
                <g id="Group-10" transform="translate(97.500000, 797.975168) rotate(5.000000) translate(-97.500000, -797.975168) translate(36.000000, 731.475168)">
                    <mask id="mask-37" fill="white">
                        <use xlink:href="#path-36"></use>
                    </mask>
                    <use id="Path-28" fill="#2F8C8E" xlink:href="#path-36"></use>
                    <path d="M130.381738,106.28411 C99.5369112,114.471471 82.7181049,113.282099 79.9253188,102.715994 C75.7361397,86.8668348 22.5617212,71.2309761 12.4088136,44.8816277 C9.92221322,38.4282743 6.05567984,25.9461092 6.66801783,17.5146936 C7.2191725,9.92572458 12.1761612,6.29356493 11.6519675,1.67036246 C11.3328407,-1.1442225 8.529306,-1.73898172 3.2413634,-0.113915205 C-5.12601148,16.6957042 -7.88977395,29.9362574 -5.049924,39.6077443 C-2.21007406,49.2792313 16.5229287,74.539408 51.1490842,115.388274 L112.812606,156.598136 L130.381738,106.28411 Z" id="Path-29" fill="#1B445F" mask="url(#mask-37)"></path>
                    <path d="M30.4725671,8.98296076 C35.0269753,25.2707652 36.0182663,34.9296415 33.44644,37.9595895" id="Path-30" stroke="#FFFFFF" stroke-width="5" mask="url(#mask-37)"></path>
                    <path d="M43.8998341,16.2853293 C48.4542424,32.5731338 49.4455333,42.23201 46.873707,45.261958" id="Path-30" stroke="#FFFFFF" stroke-width="5" mask="url(#mask-37)"></path>
                    <path d="M58.5690775,23.6210842 C63.1234857,39.9088886 64.1147767,49.5677649 61.5429503,52.5977129" id="Path-30" stroke="#FFFFFF" stroke-width="5" mask="url(#mask-37)"></path>
                </g>
                <path d="M738.915999,608.968611 C962.211581,546.022937 1098.94727,459.891494 1149.12306,350.574282 C1224.38675,186.598464 1304.46248,42.1907285 1543.58077,1.42323652 C1782.69905,-39.3442554 1930.21642,809.036394 1582.9708,834.475168 C1351.47372,851.434351 1128.15012,888.078545 913,944.407748 L913,750.974165 L738.915999,608.968611 Z" id="Path-37" fill="url(#linearGradient-38)"></path>
            </g>
            <path d="M1186.76278,1448.23154 C1186.76278,1441.01483 1134.32426,1274.05281 1163.67333,1280.90497 C1193.0224,1287.75713 1206.11468,1426.90764 1222.89612,1407.2434 C1239.67757,1387.57916 1204.92004,1211.22215 1244.18054,1211.22215 C1283.44105,1211.22215 1249.8072,1364.79201 1272.52195,1374.53136 C1295.23669,1384.27071 1295.46987,1240.84577 1323.15663,1254.49708 C1341.61446,1263.59796 1335.63357,1334.83309 1305.21394,1468.20248 C1226.2465,1459.69966 1186.76278,1453.04268 1186.76278,1448.23154 Z" id="Path-40" fill="#CD4B4A" transform="translate(1244.180543, 1339.712313) scale(-1, 1) translate(-1244.180543, -1339.712313) "></path>
            <path d="M1147.01381,1447.94509 C1147.01381,1440.72838 1094.57528,1273.76636 1123.92435,1280.61852 C1153.27342,1287.47068 1166.36571,1426.62119 1183.14715,1406.95695 C1199.92859,1387.29271 1143.88665,1211.22215 1183.14715,1211.22215 C1222.40765,1211.22215 1210.05823,1364.50556 1232.77297,1374.24491 C1255.48771,1383.98426 1255.72089,1240.55932 1283.40765,1254.21063 C1301.86549,1263.31151 1292.11199,1327.88966 1254.14715,1447.94509 C1182.72492,1452.75623 1147.01381,1452.75623 1147.01381,1447.94509 Z" id="Path-40" fill="#E15554"></path>
            <path d="" id="Path-41" stroke="#979797"></path>
            <path d="M622,1430.85318 C631.484768,1417.95864 636.484768,1407.46383 637,1399.36876 C643.205356,1301.87333 625.57238,1264.24029 637,1276.36371 C656.276317,1296.81371 649.453685,1384.85764 668.922818,1384.85764 C688.391951,1384.85764 641.226291,1187.52188 664,1187.52188 C686.773709,1187.52188 686.573553,1319.01205 712.915999,1319.01205 C739.258445,1319.01205 809.800508,1253.75122 816.893572,1276.36371 C823.986636,1298.9762 713.127992,1347.15883 742,1358.14998 C755.288043,1363.20854 726.894759,1367.77852 712.915999,1384.85764 C696.521975,1404.88771 693.825524,1437.38671 710,1437.38671 C729.977355,1437.38671 700.644022,1437.38671 622,1437.38671" id="Path-42" fill="#CB8174"></path>
            <path d="M673,1417.55345 C682.484768,1404.65891 687.484768,1394.1641 688,1386.06902 C694.205356,1288.57359 690.218882,1238.39364 701.646502,1250.51706 C720.922818,1270.96706 700.453685,1371.55791 719.922818,1371.55791 C739.391951,1371.55791 732.226291,1167.22215 755,1167.22215 C777.773709,1167.22215 737.573553,1305.71231 763.915999,1305.71231 C790.258445,1305.71231 821.813871,1205.29208 828.906936,1227.90457 C836,1250.51706 764.127992,1333.8591 793,1344.85024 C806.288043,1349.90881 777.894759,1354.47879 763.915999,1371.55791 C747.521975,1391.58798 750.810925,1409.61724 754.368656,1423.13584 C756.740476,1432.14824 729.617591,1432.46528 673,1424.08698" id="Path-42" fill="#DF9589" transform="translate(751.201231, 1298.681868) rotate(13.000000) translate(-751.201231, -1298.681868) "></path>
            <path d="M443,1278.76916 C445.863296,1248.25639 464.253325,1233 498.170085,1233 C532.086845,1233 549.745149,1247.97827 551.144997,1277.93481 L443,1278.76916 Z" id="Path-43" fill="#4ABB8A"></path>
            <path d="M871,324.929522 C871,317.418628 880.818384,290.450702 937.415413,290.450702 C975.146766,290.450702 998.341628,296.197172 1007,307.690112 C1016.5276,286.243757 1024.94297,275.520579 1032.24612,275.520579 C1037.44012,275.520579 1027.10702,293.33123 1028.32815,324.929522 C1028.65872,333.48371 1033.34059,348.249724 1042.37374,369.227564 C1023.88073,369.227564 1012.08948,361.342677 1007,345.572904 C1005.0429,339.50883 990.993655,369.227564 937.415413,369.227564 C883.837171,369.227564 871,332.440415 871,324.929522 Z" id="Path-44" fill="url(#linearGradient-39)"></path>
            <path d="M814,250.327133 C814,244.956884 821.046944,225.674959 861.668306,225.674959 C888.749214,225.674959 905.396852,229.783655 911.611222,238.001046 C918.449459,222.667015 924.489421,215 929.731109,215 C933.458994,215 926.042625,227.734522 926.919062,250.327133 C927.156329,256.443333 930.516641,267.000955 937,282 C923.727018,282 915.264092,276.362348 911.611222,265.087043 C910.206555,260.751262 900.122995,282 861.668306,282 C823.213617,282 814,255.697383 814,250.327133 Z" id="Path-44" fill="url(#linearGradient-40)"></path>
            <path d="M756,335.78172 C756,332.014531 760.927132,318.488404 789.329059,318.488404 C808.263678,318.488404 819.90349,321.370623 824.248496,327.135062 C829.029703,316.378354 833.252766,311 836.917686,311 C839.524175,311 834.338746,319.933172 834.95154,335.78172 C835.117433,340.072189 837.46692,347.478282 842,358 C832.719704,358 826.802536,354.045229 824.248496,346.135687 C823.266372,343.094169 816.216078,358 789.329059,358 C762.442041,358 756,339.54891 756,335.78172 Z" id="Path-44" fill="url(#linearGradient-41)"></path>
            <path d="M1634.39353,1180.0309 C1634.39353,1219.1147 1564.30693,1195.76755 1537.8516,1185.56261 C1532.14887,1189.28884 1526.83335,1191.56155 1521.90707,1192.38185 C1515.52864,1193.44397 1505.55961,1192.77777 1492,1190.38323 C1514.91693,1190.38323 1526.37539,1187.55244 1526.37539,1181.89086 C1526.37539,1176.22928 1514.91693,1171.22279 1492,1166.87139 L1492,1166.87139 L1522.83805,1166.87139 C1530.28953,1166.87139 1536.053,1170.00665 1540.12845,1176.27717 C1568.10022,1164.92123 1634.39353,1142.01949 1634.39353,1180.0309 Z" id="Combined-Shape" fill="url(#linearGradient-42)"></path>
        </g>
    </g>
</svg>